<?xml version="1.0" encoding="utf-8"?>
<svg viewBox="0 0 412 70" width="412" height="70" xmlns="http://www.w3.org/2000/svg">
  <defs>
    <filter id="drop-shadow-filter-2" color-interpolation-filters="sRGB" x="-50%" y="-50%" width="200%" height="200%">
      <feGaussianBlur in="SourceAlpha" stdDeviation="0"/>
      <feOffset dx="7" dy="7"/>
      <feComponentTransfer result="offsetblur">
        <feFuncA id="spread-ctrl" type="linear" slope="1"/>
      </feComponentTransfer>
      <feFlood flood-color="rgba(0,0,0,0.3)"/>
      <feComposite in2="offsetblur" operator="in"/>
      <feMerge>
        <feMergeNode/>
        <feMergeNode in="SourceGraphic"/>
      </feMerge>
    </filter>
    <linearGradient gradientUnits="userSpaceOnUse" x1="535.209" y1="91.777" x2="535.209" y2="292.234" id="gradient-2" gradientTransform="matrix(1.242501, 2.177525, -3.885226, 2.125216, 859.914963, -995.335709)">
      <stop offset="0" style="stop-color: rgb(47.451% 100% 96.863%)"/>
      <stop offset="1" style="stop-color: rgb(0% 59.265% 57.001%)"/>
    </linearGradient>
    <filter id="drop-shadow-filter-0" color-interpolation-filters="sRGB" x="-50%" y="-50%" width="200%" height="200%">
      <feGaussianBlur in="SourceAlpha" stdDeviation="4"/>
      <feOffset dx="0" dy="0"/>
      <feComponentTransfer result="offsetblur">
        <feFuncA id="spread-ctrl" type="linear" slope="1.3"/>
      </feComponentTransfer>
      <feFlood flood-color="#ff66a9"/>
      <feComposite in2="offsetblur" operator="in"/>
      <feMerge>
        <feMergeNode/>
        <feMergeNode in="SourceGraphic"/>
      </feMerge>
    </filter>
    <filter id="drop-shadow-filter-1" color-interpolation-filters="sRGB" x="-50%" y="-50%" width="200%" height="200%">
      <feGaussianBlur in="SourceAlpha" stdDeviation="5"/>
      <feOffset dx="0" dy="0"/>
      <feComponentTransfer result="offsetblur">
        <feFuncA id="spread-ctrl" type="linear" slope="1.3"/>
      </feComponentTransfer>
      <feFlood flood-color="#fdd700"/>
      <feComposite in2="offsetblur" operator="in"/>
      <feMerge>
        <feMergeNode/>
        <feMergeNode in="SourceGraphic"/>
      </feMerge>
    </filter>
  </defs>
  <path d="M 9.768 52.191 L 38.004 52.191 L 38.004 60.186 L 0 60.186 L 0 0.8140000000000001 L 9.768 0.8140000000000001 L 9.768 52.191 Z" style="fill: rgb(255, 255, 255); stroke: rgb(255, 255, 255); filter: url('#drop-shadow-filter-2');"/>
  <path d="M 399.851 33.561 L 375.473 33.561 L 375.473 52.191 L 404 52.191 L 404 60.186 L 365.67 60.186 L 365.67 0.8140000000000001 L 403.717 0.8140000000000001 L 403.717 8.89 L 375.473 8.89 L 375.473 25.649 L 399.851 25.649 L 399.851 33.561 Z" style="fill: rgb(255, 255, 255); stroke: rgb(255, 255, 255); filter: url('#drop-shadow-filter-2');"/>
  <path d="M 354.887 52.764 C 353.883 53.957 352.704 55.062 351.346 56.066 C 349.991 57.072 348.474 57.94 346.793 58.675 C 345.107 59.411 343.286 59.979 341.317 60.386 C 339.353 60.795 337.252 61 335.03 61 C 331.477 61 328.333 60.309 325.59 58.924 C 322.849 57.535 320.539 55.637 318.653 53.234 C 316.764 50.824 315.328 47.993 314.339 44.73 C 313.349 41.472 312.838 37.963 312.81 34.21 L 312.81 26.873 C 312.81 23.121 313.298 19.613 314.277 16.352 C 315.255 13.088 316.655 10.249 318.486 7.828 C 320.319 5.411 322.565 3.499 325.224 2.099 C 327.884 0.698 330.921 0 334.338 0 C 337.404 0 340.146 0.42000000000000004 342.558 1.264 C 344.976 2.103 347.046 3.321 348.783 4.915 C 350.519 6.503 351.897 8.443 352.916 10.725 C 353.931 13.007 354.578 15.564 354.845 18.39 L 345.243 18.39 C 345.001 16.787 344.623 15.347 344.104 14.068 C 343.591 12.791 342.901 11.701 342.032 10.803 C 341.162 9.909 340.111 9.223 338.876 8.748 C 337.645 8.27 336.185 8.034 334.501 8.034 C 332.437 8.034 330.668 8.543 329.192 9.561 C 327.711 10.581 326.485 11.955 325.506 13.682 C 324.53 15.408 323.811 17.403 323.35 19.674 C 322.888 21.944 322.646 24.316 322.62 26.791 L 322.62 34.21 C 322.646 36.684 322.895 39.047 323.37 41.305 C 323.846 43.561 324.591 45.551 325.609 47.277 C 326.629 49.005 327.937 50.384 329.536 51.419 C 331.136 52.453 333.063 52.98 335.316 53.007 C 336.238 53.007 337.189 52.944 338.162 52.827 C 339.138 52.703 340.069 52.506 340.952 52.234 C 341.833 51.962 342.639 51.614 343.371 51.193 C 344.104 50.77 344.699 50.251 345.161 49.623 L 345.243 37.758 L 334.543 37.758 L 334.543 30.133 L 354.806 30.133 L 354.887 52.764 Z" style="fill: rgb(255, 255, 255); stroke: rgb(255, 255, 255); filter: url('#drop-shadow-filter-2');"/>
  <path d="M 209.597 29.52 L 219.65 29.52 C 221.303 29.52 222.779 29.271 224.082 28.766 C 225.384 28.265 226.498 27.562 227.422 26.666 C 228.343 25.77 229.047 24.697 229.537 23.447 C 230.026 22.193 230.268 20.836 230.268 19.371 C 230.268 17.817 230.026 16.392 229.537 15.088 C 229.047 13.783 228.343 12.661 227.422 11.721 C 226.498 10.784 225.384 10.058 224.082 9.542 C 222.779 9.024 221.303 8.755 219.65 8.725999999999999 L 209.597 8.725999999999999 L 209.597 29.52 Z" style="fill: rgb(255, 255, 255); stroke: rgb(255, 255, 255); filter: url('#drop-shadow-filter-2');"/>
  <path d="M 209.597 37.432 L 209.597 60.186 L 199.833 60.186 L 199.833 0.8140000000000001 L 219.65 0.8140000000000001 C 222.608 0.8420000000000001 225.34 1.2850000000000001 227.849 2.141 C 230.356 2.997 232.519 4.219 234.338 5.812 C 236.158 7.401 237.575 9.332 238.59 11.602 C 239.608 13.867 240.118 16.435 240.118 19.287 C 240.118 22.06 239.608 24.561 238.59 26.791 C 237.575 29.018 236.158 30.922 234.338 32.497 C 232.519 34.075 230.356 35.285 227.849 36.127 C 225.34 36.972 222.608 37.406 219.65 37.432 L 209.597 37.432 Z" style="fill: rgb(255, 255, 255); stroke: rgb(255, 255, 255); filter: url('#drop-shadow-filter-2');"/>
  <path d="M 183.801 33.561 L 159.426 33.561 L 159.426 52.191 L 187.953 52.191 L 187.953 60.186 L 149.618 60.186 L 149.618 0.8140000000000001 L 187.669 0.8140000000000001 L 187.669 8.89 L 159.426 8.89 L 159.426 25.649 L 183.801 25.649 L 183.801 33.561 Z" style="fill: rgb(255, 255, 255); stroke: rgb(255, 255, 255); filter: url('#drop-shadow-filter-2');"/>
  <path d="M 141.032 8.89 L 122.844 8.89 L 122.844 60.186 L 113.116 60.186 L 113.116 8.89 L 95.05 8.89 L 95.05 0.8140000000000001 L 141.032 0.8140000000000001 L 141.032 8.89 Z" style="fill: rgb(255, 255, 255); stroke: rgb(255, 255, 255); filter: url('#drop-shadow-filter-2');"/>
  <path d="M 50.374 0.8140000000000001 L 85.614 0.8140000000000001 L 85.614 8.933 L 72.797 8.933 L 72.797 52.11 L 85.614 52.11 L 85.614 60.186 L 50.374 60.186 L 50.374 52.11 L 62.904 52.11 L 62.904 8.933 L 50.374 8.933 L 50.374 0.8140000000000001 Z" style="fill: rgb(255, 255, 255); stroke: rgb(255, 255, 255); filter: url('#drop-shadow-filter-2');"/>
  <g transform="matrix(0.14000000059604645, 0, 0, 0.14000000059604645, 167.5166320800781, -18.359704971313477)" style="filter: none;">
    <path d="M 739.607 162.49 Q 771.626 99.791 803.644 162.49 L 1010.952 568.442 Q 1042.971 631.141 978.933 631.141 L 564.318 631.141 Q 500.28 631.141 532.299 568.442 Z" style="paint-order: fill; fill-rule: nonzero; stroke-width: 6px; filter: none; fill: url('#gradient-2');"/>
    <path d="M 846.91 247.215 L 893.413 338.277 L 579.376 476.256 L 618.064 400.497 L 846.91 247.215 Z" style="paint-order: fill; fill-rule: nonzero; stroke-width: 6px; fill: rgb(255, 102, 169); filter: url('#drop-shadow-filter-0');"/>
    <path d="M 892.349 336.193 L 940.895 431.257 L 545.051 543.472 L 580.126 474.787 L 892.349 336.193 Z" style="paint-order: fill; fill-rule: nonzero; stroke-width: 6px; fill: rgb(253, 214, 0); filter: url('#drop-shadow-filter-1');"/>
  </g>
</svg>