<svg width="330" height="330" xmlns="http://www.w3.org/2000/svg"><defs><filter id="a" color-interpolation-filters="sRGB" x="-50%" y="-50%" width="200%" height="200%"><feGaussianBlur in="SourceAlpha" stdDeviation="20"/><feOffset dy="10"/><feComponentTransfer result="offsetblur"><feFuncA type="linear" slope=".8"/></feComponentTransfer><feFlood flood-color="#00000098"/><feComposite in2="offsetblur" operator="in"/><feMerge><feMergeNode/><feMergeNode in="SourceGraphic"/></feMerge></filter><filter id="c" color-interpolation-filters="sRGB" x="-50%" y="-50%" width="200%" height="200%"><feGaussianBlur in="SourceAlpha" stdDeviation="3"/><feOffset/><feComponentTransfer result="offsetblur"><feFuncA type="linear"/></feComponentTransfer><feFlood flood-color="#79fff7"/><feComposite in2="offsetblur" operator="in"/><feMerge><feMergeNode/><feMergeNode in="SourceGraphic"/></feMerge></filter><filter id="d" color-interpolation-filters="sRGB" x="-50%" y="-50%" width="200%" height="200%"><feGaussianBlur in="SourceAlpha" stdDeviation="4"/><feOffset/><feComponentTransfer result="offsetblur"><feFuncA type="linear" slope="1.3"/></feComponentTransfer><feFlood flood-color="#ff66a9"/><feComposite in2="offsetblur" operator="in"/><feMerge><feMergeNode/><feMergeNode in="SourceGraphic"/></feMerge></filter><filter id="e" color-interpolation-filters="sRGB" x="-50%" y="-50%" width="200%" height="200%"><feGaussianBlur in="SourceAlpha" stdDeviation="4"/><feOffset/><feComponentTransfer result="offsetblur"><feFuncA type="linear" slope="1.3"/></feComponentTransfer><feFlood flood-color="#fdd500"/><feComposite in2="offsetblur" operator="in"/><feMerge><feMergeNode/><feMergeNode in="SourceGraphic"/></feMerge></filter><filter id="f" color-interpolation-filters="sRGB" x="-50%" y="-50%" width="200%" height="200%"><feGaussianBlur in="SourceAlpha" stdDeviation="2"/><feOffset/><feComponentTransfer result="offsetblur"><feFuncA type="linear" slope="1.74"/></feComponentTransfer><feFlood flood-color="#fff"/><feComposite in2="offsetblur" operator="in"/><feMerge><feMergeNode/><feMergeNode in="SourceGraphic"/></feMerge></filter><linearGradient gradientUnits="userSpaceOnUse" x1="535.209" y1="91.777" x2="535.209" y2="292.234" id="b" gradientTransform="matrix(.56275 1.0073 -1.7597 .9831 204.987 -471.74)"><stop offset="0" stop-color="rgb(47.451% 100% 96.863%)"/><stop offset="1" stop-color="rgb(0% 59.265% 57.001%)"/></linearGradient></defs><path d="M150.498 63.856q14.501-29.004 29.003 0l93.894 187.787q14.502 29.004-14.502 29.004H71.106q-29.004 0-14.502-29.004Z" filter="url(#a)" paint-order="fill" fill="url(#b)" pointer-events="none"/><path fill="#79fff7" paint-order="fill" filter="url(#c)" pointer-events="none" d="m.824 246.523 165.037-85.659-2.945 14.991L4.473 250.686z"/><path fill="#ff66a9" filter="url(#d)" pointer-events="none" d="m164.072 164.795 163.675 29.202-27.246 23.24-139.99-45.106z"/><path fill="#fdd500" filter="url(#e)" pointer-events="none" d="m161.442 168.442 139.566 48.435-23.492 19.986-118.622-59.397z"/><path d="m165.001 201.235-4.133-36.234V165l4.133-36.235L169.132 165v.001l-4.131 36.234Z" transform="rotate(30 165 165)" fill="#fff" filter="url(#f)" pointer-events="none"/></svg>